<svg version="1.1" xmlns="http://www.w3.org/2000/svg" viewBox="0 0 207.92094322113195 155.91001771581762" width="415.8418864422639" height="311.82003543163523">
  <!-- svg-source:excalidraw -->
  
  <defs>
    <style>
      @font-face {
        font-family: "Virgil";
        src: url("https://excalidraw.com/Virgil.woff2");
      }
      @font-face {
        font-family: "Cascadia";
        src: url("https://excalidraw.com/Cascadia.woff2");
      }
    </style>
  </defs>
  <g stroke-linecap="round" transform="translate(9.048352743568813 12.814383857908808) rotate(14.142691776338504 95.2421875 63.0234375)"><path d="M69.77 1.86 C81.19 -1.27, 96.06 -1.45, 108.87 -0.26 C121.67 0.92, 135.56 4.05, 146.59 8.98 C157.62 13.91, 167.92 22.14, 175.06 29.32 C182.2 36.49, 187.36 43.63, 189.42 52.04 C191.47 60.46, 190.55 71.38, 187.4 79.8 C184.25 88.23, 178.62 95.93, 170.52 102.59 C162.42 109.26, 150.39 115.87, 138.79 119.78 C127.19 123.69, 113.69 125.82, 100.91 126.05 C88.14 126.28, 74.31 124.27, 62.13 121.16 C49.96 118.06, 37.01 113.15, 27.84 107.42 C18.68 101.68, 11.68 94.72, 7.15 86.75 C2.62 78.79, 0.09 68.16, 0.65 59.62 C1.21 51.09, 4.78 43.22, 10.51 35.55 C16.23 27.89, 22.62 19.38, 35.01 13.63 C47.41 7.89, 74.08 3.01, 84.85 1.1 C95.61 -0.81, 99.39 1.14, 99.58 2.17 M67.26 4.43 C78.38 1.18, 92.31 0.54, 104.9 1.04 C117.5 1.53, 131.5 3.25, 142.83 7.4 C154.16 11.55, 165.07 18.98, 172.88 25.94 C180.68 32.91, 187.25 40.78, 189.66 49.19 C192.06 57.6, 190.44 67.86, 187.31 76.39 C184.18 84.92, 178.24 93.37, 170.88 100.38 C163.52 107.39, 153.95 114.32, 143.14 118.48 C132.33 122.64, 119.11 124.48, 106.02 125.33 C92.93 126.18, 77.13 126.1, 64.6 123.57 C52.07 121.03, 40.05 115.83, 30.83 110.14 C21.61 104.44, 14.25 97.45, 9.26 89.39 C4.26 81.33, 1.2 70.61, 0.86 61.77 C0.52 52.93, 2 43.95, 7.23 36.34 C12.45 28.73, 22.41 21.43, 32.21 16.11 C42.01 10.79, 60.22 6.55, 66.02 4.41 C71.83 2.26, 66.44 2.27, 67.03 3.24" stroke="none" stroke-width="0" fill="#303846"></path><path d="M131.76 5.53 C143.41 7.71, 154.25 13.83, 163.17 19.71 C172.09 25.59, 180.65 32.86, 185.29 40.8 C189.92 48.74, 191.98 58.75, 190.98 67.34 C189.97 75.94, 185.38 84.69, 179.25 92.38 C173.12 100.07, 164.51 108.08, 154.2 113.49 C143.89 118.89, 130.11 122.91, 117.38 124.79 C104.65 126.68, 90.44 126.26, 77.84 124.8 C65.24 123.33, 52.4 120.77, 41.78 115.99 C31.16 111.21, 21.05 103.6, 14.11 96.12 C7.17 88.64, 1.91 79.5, 0.13 71.11 C-1.65 62.73, -0.25 53.92, 3.45 45.82 C7.14 37.71, 13.8 28.91, 22.31 22.48 C30.81 16.04, 42.77 10.86, 54.47 7.2 C66.16 3.54, 78.51 0.68, 92.48 0.53 C106.44 0.38, 129.61 4.53, 138.26 6.3 C146.9 8.06, 144.91 10, 144.33 11.14 M124.15 2.8 C136.41 4.65, 150.52 11.2, 160.31 17.23 C170.1 23.26, 177.8 31.5, 182.88 38.99 C187.96 46.49, 191.12 53.71, 190.8 62.17 C190.48 70.64, 186.21 82.03, 180.97 89.78 C175.74 97.54, 168.76 102.91, 159.38 108.71 C150 114.51, 137.18 121.95, 124.68 124.58 C112.19 127.21, 97.39 125.67, 84.41 124.51 C71.44 123.35, 57.79 121.67, 46.81 117.63 C35.83 113.6, 25.93 107.42, 18.52 100.3 C11.11 93.19, 5.22 83.22, 2.33 74.95 C-0.55 66.68, -1.68 58.89, 1.21 50.7 C4.1 42.5, 11.93 32.74, 19.67 25.76 C27.41 18.77, 36.45 12.87, 47.66 8.79 C58.88 4.71, 74.26 2.05, 86.96 1.28 C99.66 0.52, 117.61 3.79, 123.88 4.19 C130.14 4.6, 124.94 2.71, 124.56 3.74" stroke="#303846" stroke-width="1" fill="none"></path></g><g stroke-linecap="round" transform="translate(6.546399618568813 14.931571357908808) rotate(339.1505350805056 95.2421875 63.0234375)"><path d="M73.4 1 C84.97 -1.73, 99.84 -0.6, 112.42 1.18 C125.01 2.97, 138 6.76, 148.9 11.7 C159.81 16.63, 171.16 23.5, 177.86 30.77 C184.55 38.04, 187.52 46.73, 189.08 55.32 C190.64 63.91, 190.84 74.16, 187.22 82.28 C183.6 90.41, 175.87 97.77, 167.38 104.08 C158.9 110.39, 148.04 116.44, 136.31 120.16 C124.59 123.89, 110.22 126.38, 97.04 126.44 C83.85 126.5, 69.18 123.83, 57.19 120.52 C45.21 117.21, 33.66 112.67, 25.12 106.6 C16.58 100.53, 10.15 92.21, 5.93 84.1 C1.72 76, -1.3 66.53, -0.18 57.96 C0.95 49.4, 6.45 40.3, 12.68 32.7 C18.92 25.11, 25.97 17.86, 37.22 12.4 C48.48 6.94, 72.05 1.79, 80.21 -0.04 C88.37 -1.87, 85.95 0.36, 86.2 1.44 M100.4 -0.54 C112.86 -1.42, 126.9 2.27, 138.05 6.22 C149.21 10.16, 159.23 16.33, 167.34 23.14 C175.45 29.96, 183.18 39.13, 186.72 47.12 C190.26 55.1, 190.39 63, 188.58 71.05 C186.77 79.1, 182.57 87.93, 175.86 95.42 C169.15 102.9, 158.92 110.82, 148.3 115.96 C137.68 121.09, 124.95 125.05, 112.14 126.25 C99.32 127.45, 83.93 125.54, 71.4 123.17 C58.86 120.8, 46.94 116.99, 36.93 112.04 C26.92 107.1, 17.32 100.84, 11.35 93.5 C5.38 86.16, 2.2 76.9, 1.11 67.99 C0.02 59.09, 0.66 48.15, 4.83 40.07 C9.01 32, 16.96 25.46, 26.16 19.52 C35.35 13.58, 47.64 7.61, 60.01 4.42 C72.38 1.24, 94.06 0.83, 100.38 0.41 C106.7 -0.01, 98.03 0.89, 97.93 1.89" stroke="none" stroke-width="0" fill="#303846"></path><path d="M129.74 3.25 C141.73 5.2, 153.63 12.38, 162.52 18.65 C171.41 24.92, 178.5 32.96, 183.09 40.86 C187.69 48.76, 190.61 57.54, 190.08 66.05 C189.55 74.55, 185.55 84.38, 179.91 91.9 C174.28 99.43, 166.08 105.97, 156.25 111.2 C146.43 116.43, 133.57 120.91, 120.97 123.27 C108.36 125.64, 93.33 126.63, 80.61 125.39 C67.89 124.16, 55.5 120.63, 44.66 115.88 C33.81 111.13, 22.85 104.06, 15.54 96.89 C8.23 89.73, 2.8 81.23, 0.79 72.89 C-1.22 64.55, 0.12 54.96, 3.49 46.86 C6.86 38.76, 12.87 30.91, 21.03 24.31 C29.19 17.71, 40.91 11.27, 52.45 7.25 C63.98 3.24, 75.65 0.11, 90.23 0.25 C104.81 0.39, 129.81 5.83, 139.91 8.12 C150.01 10.4, 151.38 13.01, 150.82 13.95 M90.44 0.91 C102.83 -0.17, 118.39 1.67, 130.68 4.69 C142.98 7.72, 155.48 13.21, 164.21 19.06 C172.95 24.92, 178.6 31.72, 183.08 39.82 C187.55 47.91, 191.82 58.83, 191.04 67.64 C190.25 76.44, 184.19 85.25, 178.38 92.65 C172.57 100.05, 166.22 106.87, 156.18 112.06 C146.15 117.24, 130.86 121.47, 118.16 123.78 C105.46 126.09, 92.45 127.22, 80 125.93 C67.55 124.64, 54.41 121.04, 43.46 116.05 C32.51 111.06, 21.16 103.08, 14.3 96 C7.43 88.92, 4.08 81.93, 2.29 73.56 C0.5 65.19, 0.23 54.03, 3.55 45.78 C6.86 37.52, 13.85 30.8, 22.18 24.05 C30.51 17.29, 41.92 9.27, 53.53 5.25 C65.14 1.22, 85.71 0.69, 91.84 -0.09 C97.96 -0.86, 90.17 -0.61, 90.27 0.61" stroke="#303846" stroke-width="1" fill="none"></path></g><g transform="translate(62.53504321620855 75.92490853374318) rotate(182.52692855056608 25.47251553778233 13.524452722928942)" stroke="none"><path fill="#868e96" d="M -1.11,-14.70 Q -1.11,-14.70 0.75,-14.78 2.62,-14.87 5.88,-15.15 9.13,-15.43 12.43,-15.45 15.72,-15.48 19.10,-15.26 22.48,-15.03 24.80,-14.47 27.11,-13.91 29.93,-12.93 32.76,-11.95 35.25,-10.68 37.75,-9.42 40.01,-7.99 42.26,-6.56 43.93,-5.16 45.61,-3.77 47.41,-1.67 49.21,0.43 50.32,2.41 51.42,4.40 52.32,6.73 53.22,9.05 53.66,11.17 54.11,13.28 54.35,15.70 54.59,18.12 54.59,20.26 54.60,22.39 54.46,24.93 54.33,27.46 54.01,31.12 53.70,34.79 53.63,35.23 53.56,35.67 53.35,36.07 53.15,36.46 52.83,36.77 52.50,37.08 52.10,37.27 51.70,37.46 51.25,37.51 50.81,37.57 50.37,37.47 49.93,37.38 49.55,37.15 49.17,36.92 48.87,36.59 48.58,36.25 48.42,35.83 48.25,35.42 48.22,34.98 48.19,34.53 48.31,34.10 48.42,33.67 48.67,33.30 48.92,32.92 49.27,32.65 49.63,32.38 50.05,32.23 50.47,32.09 50.92,32.08 51.37,32.08 51.79,32.22 52.21,32.36 52.57,32.63 52.93,32.90 53.18,33.26 53.43,33.63 53.56,34.06 53.68,34.49 53.66,34.94 53.64,35.38 53.48,35.80 53.31,36.21 53.03,36.56 52.74,36.90 52.36,37.13 51.98,37.36 51.54,37.46 51.11,37.56 50.66,37.52 50.22,37.47 49.81,37.29 49.41,37.10 49.08,36.80 48.75,36.49 48.54,36.10 48.33,35.71 48.25,35.27 48.18,34.83 48.18,34.83 48.18,34.83 47.71,31.24 47.24,27.64 46.89,25.36 46.53,23.07 46.05,20.52 45.57,17.97 44.83,15.79 44.10,13.60 42.80,11.63 41.50,9.65 39.89,8.11 38.29,6.58 36.26,5.35 34.23,4.13 32.22,3.19 30.21,2.25 27.94,1.46 25.67,0.67 23.44,0.12 21.21,-0.41 18.58,-0.47 15.95,-0.53 13.17,-0.40 10.38,-0.27 7.57,0.08 4.75,0.43 2.93,0.86 1.11,1.30 0.14,1.32 -0.83,1.33 -1.78,1.12 -2.73,0.90 -3.60,0.46 -4.47,0.03 -5.21,-0.60 -5.95,-1.23 -6.52,-2.02 -7.09,-2.81 -7.45,-3.72 -7.81,-4.62 -7.94,-5.59 -8.08,-6.55 -7.98,-7.52 -7.88,-8.49 -7.55,-9.41 -7.22,-10.33 -6.68,-11.14 -6.14,-11.95 -5.42,-12.61 -4.70,-13.27 -3.85,-13.74 -2.99,-14.20 -2.05,-14.45 -1.11,-14.70 -1.11,-14.70 L -1.11,-14.70 Z"></path></g><g transform="translate(88.33826507288424 46.99055621857053) rotate(6.999052719659772 27.132402762365796 12.952261975482827)" stroke="none"><path fill="#868e96" d="M -1.02,-14.75 Q -1.02,-14.75 0.96,-14.83 2.95,-14.90 6.39,-15.17 9.82,-15.43 13.29,-15.46 16.77,-15.48 20.31,-15.26 23.85,-15.04 26.24,-14.51 28.62,-13.97 31.59,-13.03 34.55,-12.09 37.17,-10.87 39.79,-9.65 42.18,-8.26 44.56,-6.88 46.33,-5.53 48.10,-4.18 49.61,-2.64 51.12,-1.10 52.52,0.93 53.92,2.98 54.90,5.04 55.87,7.10 56.59,9.84 57.31,12.58 57.58,14.97 57.86,17.36 57.85,20.03 57.85,22.70 57.70,25.37 57.55,28.04 57.28,30.84 57.02,33.65 56.95,34.09 56.88,34.53 56.67,34.93 56.47,35.32 56.15,35.63 55.82,35.94 55.42,36.13 55.02,36.32 54.57,36.38 54.13,36.43 53.69,36.34 53.26,36.24 52.87,36.02 52.49,35.79 52.20,35.45 51.90,35.11 51.74,34.70 51.57,34.29 51.54,33.84 51.51,33.39 51.63,32.96 51.74,32.53 51.99,32.16 52.24,31.79 52.59,31.52 52.95,31.24 53.37,31.10 53.79,30.95 54.24,30.95 54.68,30.94 55.11,31.08 55.53,31.22 55.89,31.49 56.25,31.76 56.50,32.13 56.75,32.49 56.88,32.92 57.00,33.35 56.98,33.80 56.96,34.24 56.80,34.66 56.63,35.08 56.35,35.42 56.06,35.76 55.68,35.99 55.30,36.23 54.86,36.33 54.43,36.43 53.98,36.38 53.54,36.34 53.13,36.15 52.73,35.97 52.40,35.66 52.07,35.36 51.86,34.97 51.65,34.57 51.57,34.13 51.50,33.69 51.50,33.69 51.50,33.69 51.03,30.20 50.55,26.71 50.19,24.50 49.83,22.28 49.34,19.83 48.84,17.37 47.88,14.88 46.91,12.40 45.54,10.66 44.16,8.93 42.41,7.51 40.66,6.10 38.78,5.09 36.90,4.08 34.74,3.16 32.58,2.25 30.10,1.45 27.62,0.66 25.16,0.12 22.69,-0.42 19.83,-0.47 16.98,-0.53 13.97,-0.40 10.96,-0.27 7.93,0.07 4.90,0.42 2.96,0.85 1.02,1.28 0.04,1.28 -0.92,1.29 -1.87,1.06 -2.82,0.83 -3.68,0.38 -4.55,-0.05 -5.28,-0.70 -6.01,-1.34 -6.57,-2.14 -7.13,-2.93 -7.48,-3.84 -7.83,-4.75 -7.96,-5.72 -8.08,-6.69 -7.97,-7.65 -7.86,-8.62 -7.52,-9.53 -7.18,-10.45 -6.63,-11.25 -6.08,-12.06 -5.35,-12.71 -4.63,-13.36 -3.77,-13.82 -2.91,-14.28 -1.96,-14.51 -1.02,-14.75 -1.02,-14.75 L -1.02,-14.75 Z"></path></g><g transform="translate(62.43902924627673 38.920397903357696) rotate(0 46.349715044535834 43.22470961250889)" stroke="none"><path fill="#868e96" d="M 5.51,-5.91 Q 5.51,-5.91 11.46,1.05 17.42,8.03 26.91,16.88 36.41,25.74 47.11,35.71 57.80,45.69 69.01,56.14 80.22,66.60 80.82,67.37 81.41,68.13 81.73,69.05 82.05,69.97 82.06,70.95 82.06,71.92 81.76,72.84 81.46,73.77 80.87,74.54 80.29,75.32 79.49,75.87 78.69,76.43 77.75,76.69 76.82,76.96 75.85,76.92 74.88,76.87 73.97,76.52 73.07,76.16 72.32,75.54 71.57,74.92 71.07,74.09 70.56,73.26 70.34,72.31 70.13,71.36 70.22,70.40 70.32,69.43 70.72,68.54 71.12,67.66 71.79,66.95 72.45,66.23 73.31,65.77 74.16,65.31 75.12,65.15 76.08,64.98 77.04,65.13 78.00,65.28 78.86,65.73 79.72,66.18 80.40,66.88 81.07,67.58 81.49,68.46 81.90,69.34 82.02,70.31 82.13,71.27 81.93,72.22 81.72,73.17 81.23,74.01 80.73,74.85 80.00,75.48 79.26,76.12 78.36,76.48 77.46,76.85 76.49,76.91 75.52,76.97 74.58,76.72 73.64,76.46 72.83,75.93 72.02,75.39 72.02,75.39 72.02,75.39 60.82,64.93 49.61,54.48 38.91,44.50 28.21,34.53 18.72,25.67 9.22,16.82 1.85,11.36 -5.51,5.91 -6.14,5.16 -6.76,4.42 -7.19,3.54 -7.62,2.67 -7.83,1.72 -8.04,0.76 -8.02,-0.20 -7.99,-1.17 -7.74,-2.11 -7.48,-3.05 -7.00,-3.90 -6.53,-4.76 -5.86,-5.47 -5.20,-6.18 -4.38,-6.71 -3.57,-7.25 -2.65,-7.57 -1.73,-7.89 -0.76,-7.98 0.20,-8.08 1.17,-7.93 2.13,-7.79 3.03,-7.42 3.93,-7.05 4.72,-6.48 5.51,-5.91 5.51,-5.91 L 5.51,-5.91 Z"></path></g></svg>