<svg version="1.1" xmlns="http://www.w3.org/2000/svg" viewBox="0 0 200.50040140069046 192.01939918247402" width="401.0008028013809" height="384.03879836494804">
  <!-- svg-source:excalidraw -->
  
  <defs>
    <style>
      @font-face {
        font-family: "Virgil";
        src: url("https://unpkg.com/@zsviczian/excalidraw@0.11.0-obsidian-21-namedexport/dist/excalidraw-assets/Virgil.woff2");
      }
      @font-face {
        font-family: "Cascadia";
        src: url("https://unpkg.com/@zsviczian/excalidraw@0.11.0-obsidian-21-namedexport/dist/excalidraw-assets/Cascadia.woff2");
      }
    </style>
  </defs>
  <rect x="0" y="0" width="200.50040140069046" height="192.01939918247402" fill="#ffffff"/><g transform="translate(10.186954332902772 78.12039975715612) rotate(182.52692855056608 49.59900265662013 33.9562101642841)" stroke="none"><path fill="#868e96" d="M -2.23,-21.44 Q -2.23,-21.44 1.40,-21.59 5.05,-21.73 11.40,-22.28 17.75,-22.82 24.18,-22.87 30.62,-22.92 37.22,-22.48 43.82,-22.04 48.35,-20.93 52.89,-19.83 58.40,-17.92 63.91,-16.00 68.80,-13.53 73.68,-11.05 78.08,-8.25 82.48,-5.44 85.75,-2.72 89.02,0.00 92.54,4.13 96.07,8.26 98.23,12.15 100.39,16.04 102.13,20.60 103.88,25.16 104.95,30.75 106.02,36.35 106.30,41.18 106.58,46.01 106.45,51.02 106.31,56.04 105.97,61.81 105.64,67.57 105.17,71.47 104.71,75.36 104.57,76.25 104.43,77.13 104.02,77.92 103.61,78.71 102.96,79.33 102.32,79.95 101.51,80.33 100.70,80.71 99.82,80.81 98.93,80.92 98.06,80.73 97.18,80.55 96.41,80.09 95.65,79.64 95.06,78.96 94.48,78.28 94.14,77.46 93.81,76.63 93.75,75.74 93.70,74.85 93.93,73.98 94.16,73.12 94.66,72.38 95.15,71.64 95.86,71.09 96.57,70.55 97.41,70.25 98.26,69.96 99.15,69.96 100.04,69.95 100.89,70.23 101.74,70.51 102.45,71.04 103.17,71.58 103.68,72.32 104.18,73.05 104.43,73.91 104.67,74.77 104.63,75.66 104.59,76.55 104.26,77.38 103.94,78.22 103.37,78.90 102.79,79.59 102.03,80.05 101.27,80.52 100.40,80.72 99.53,80.91 98.64,80.82 97.75,80.73 96.94,80.36 96.12,79.99 95.47,79.38 94.82,78.77 94.39,77.99 93.97,77.20 93.82,76.32 93.67,75.44 93.67,75.44 93.67,75.44 93.25,73.11 92.83,70.78 92.32,66.12 91.81,61.46 91.10,57.01 90.40,52.56 89.45,47.61 88.50,42.66 87.06,38.43 85.62,34.20 83.09,30.39 80.56,26.57 77.45,23.63 74.33,20.68 70.41,18.33 66.48,15.97 62.57,14.16 58.66,12.35 54.28,10.82 49.90,9.30 45.58,8.24 41.27,7.19 36.17,7.08 31.08,6.97 25.66,7.23 20.25,7.49 14.78,8.18 9.32,8.87 5.77,9.72 2.23,10.58 0.28,10.61 -1.66,10.65 -3.56,10.21 -5.46,9.78 -7.20,8.91 -8.94,8.03 -10.42,6.77 -11.90,5.50 -13.04,3.92 -14.18,2.33 -14.90,0.52 -15.62,-1.28 -15.89,-3.21 -16.16,-5.14 -15.96,-7.08 -15.76,-9.02 -15.10,-10.85 -14.44,-12.68 -13.36,-14.31 -12.28,-15.93 -10.85,-17.25 -9.41,-18.57 -7.70,-19.50 -5.99,-20.44 -4.11,-20.94 -2.23,-21.44 -2.23,-21.44 L -2.23,-21.44 Z"/></g><g transform="translate(60.42989431738601 21.78065525021185) rotate(6.999052719659772 52.83106470952927 32.84206459194837)" stroke="none"><path fill="#868e96" d="M -2.04,-21.53 Q -2.04,-21.53 1.82,-21.67 5.70,-21.80 12.40,-22.32 19.10,-22.84 25.87,-22.88 32.65,-22.92 39.56,-22.49 46.48,-22.06 51.15,-21.01 55.82,-19.96 61.61,-18.12 67.39,-16.28 72.52,-13.89 77.64,-11.50 82.29,-8.79 86.94,-6.08 90.40,-3.44 93.87,-0.80 97.62,3.21 101.38,7.22 103.72,11.04 106.07,14.87 107.99,19.37 109.91,23.88 111.10,29.41 112.30,34.94 112.63,39.71 112.97,44.48 112.85,49.39 112.74,54.30 112.42,59.92 112.09,65.54 111.63,69.35 111.17,73.15 111.04,74.03 110.90,74.91 110.49,75.70 110.07,76.50 109.43,77.11 108.79,77.73 107.98,78.12 107.17,78.50 106.28,78.60 105.40,78.70 104.52,78.52 103.65,78.33 102.88,77.88 102.11,77.43 101.53,76.75 100.95,76.07 100.61,75.25 100.27,74.42 100.22,73.53 100.16,72.64 100.39,71.77 100.63,70.91 101.12,70.17 101.62,69.43 102.32,68.88 103.03,68.33 103.87,68.04 104.72,67.75 105.61,67.74 106.50,67.74 107.35,68.01 108.20,68.29 108.92,68.83 109.63,69.36 110.14,70.10 110.64,70.83 110.89,71.69 111.14,72.55 111.09,73.44 111.05,74.33 110.73,75.17 110.40,76.00 109.83,76.68 109.26,77.37 108.50,77.84 107.74,78.30 106.86,78.50 105.99,78.70 105.11,78.61 104.22,78.52 103.40,78.15 102.59,77.78 101.94,77.17 101.28,76.56 100.86,75.78 100.44,74.99 100.28,74.11 100.13,73.23 100.13,73.23 100.13,73.23 99.71,70.97 99.29,68.71 98.77,64.17 98.25,59.64 97.54,55.34 96.82,51.04 95.85,46.27 94.87,41.50 93.39,37.46 91.91,33.43 89.30,29.82 86.70,26.20 83.42,23.37 80.14,20.53 75.92,18.21 71.69,15.88 67.50,14.11 63.30,12.34 58.50,10.81 53.70,9.29 48.93,8.23 44.15,7.18 38.61,7.07 33.07,6.96 27.22,7.23 21.38,7.49 15.49,8.17 9.60,8.85 5.82,9.69 2.04,10.53 0.09,10.55 -1.85,10.56 -3.74,10.10 -5.64,9.65 -7.37,8.75 -9.10,7.86 -10.57,6.57 -12.03,5.29 -13.15,3.69 -14.27,2.09 -14.97,0.28 -15.67,-1.53 -15.92,-3.47 -16.16,-5.40 -15.94,-7.33 -15.72,-9.27 -15.04,-11.10 -14.36,-12.92 -13.26,-14.53 -12.16,-16.14 -10.71,-17.44 -9.26,-18.75 -7.54,-19.66 -5.82,-20.58 -3.93,-21.06 -2.04,-21.53 -2.04,-21.53 L -2.04,-21.53 Z"/></g><g transform="translate(10 13.688754042813457) rotate(0 90.25020070034523 84.16532256983028)" stroke="none"><path fill="#868e96" d="M 11.02,-11.82 Q 11.02,-11.82 22.58,1.79 34.14,15.40 52.63,32.64 71.11,49.88 91.95,69.31 112.78,88.73 134.60,109.09 156.43,129.44 157.62,130.98 158.81,132.52 159.44,134.36 160.08,136.20 160.09,138.14 160.11,140.09 159.50,141.94 158.89,143.78 157.73,145.34 156.56,146.90 154.96,148.00 153.36,149.11 151.49,149.64 149.62,150.18 147.68,150.09 145.74,150.00 143.92,149.29 142.11,148.58 140.62,147.34 139.13,146.09 138.11,144.43 137.10,142.77 136.67,140.87 136.23,138.98 136.43,137.04 136.62,135.11 137.43,133.34 138.23,131.57 139.56,130.14 140.88,128.72 142.59,127.80 144.31,126.87 146.22,126.54 148.14,126.22 150.06,126.52 151.98,126.82 153.71,127.71 155.43,128.61 156.78,130.01 158.13,131.41 158.96,133.17 159.79,134.93 160.01,136.86 160.24,138.80 159.83,140.70 159.43,142.60 158.44,144.27 157.45,145.95 155.98,147.22 154.51,148.49 152.70,149.22 150.90,149.96 148.96,150.08 147.02,150.20 145.14,149.69 143.26,149.18 141.65,148.10 140.03,147.02 140.03,147.03 140.03,147.03 118.21,126.67 96.38,106.32 75.55,86.89 54.72,67.47 36.23,50.22 17.74,32.98 3.36,22.40 -11.02,11.82 -12.28,10.33 -13.53,8.84 -14.39,7.09 -15.25,5.34 -15.67,3.44 -16.09,1.53 -16.04,-0.41 -15.99,-2.35 -15.48,-4.23 -14.96,-6.11 -14.01,-7.81 -13.06,-9.52 -11.73,-10.94 -10.40,-12.37 -8.77,-13.43 -7.14,-14.50 -5.30,-15.14 -3.46,-15.79 -1.52,-15.97 0.41,-16.16 2.34,-15.87 4.27,-15.59 6.07,-14.85 7.87,-14.11 9.45,-12.97 11.02,-11.82 11.02,-11.82 L 11.02,-11.82 Z"/></g></svg>