<svg version="1.1" xmlns="http://www.w3.org/2000/svg" viewBox="0 0 259.4933362197928 195.5553110952542" width="518.9866724395856" height="391.1106221905084">
  <!-- svg-source:excalidraw -->
  
  <defs>
    <style>
      @font-face {
        font-family: "Virgil";
        src: url("https://unpkg.com/@zsviczian/excalidraw@0.11.0-obsidian-21-namedexport/dist/excalidraw-assets/Virgil.woff2");
      }
      @font-face {
        font-family: "Cascadia";
        src: url("https://unpkg.com/@zsviczian/excalidraw@0.11.0-obsidian-21-namedexport/dist/excalidraw-assets/Cascadia.woff2");
      }
    </style>
  </defs>
  <rect x="0" y="0" width="259.4933362197928" height="195.5553110952542" fill="#ffffff"/><g stroke-linecap="round"><g transform="translate(137.07307722713557 164.1008261411581) rotate(0 56.210129496328605 -50.05350605154317)" fill-rule="evenodd"><path d="M1.78 -0.2 L4.41 -31.78 L8.4 -60.3 L12.83 -65.44 L20.59 -78.69 L32.74 -89.67 L43.83 -98.32 L54.71 -100.12 L64.71 -97.2 L76.6 -93.75 L85.33 -85.13 L98.33 -65.43 L113.64 -37.63 L116.95 -19.39 L116.65 -12.31 L113.77 -6.42 L102.33 -2.98 L73.04 1.95 L0.88 -0.01" stroke="none" stroke-width="0" fill="#868e96" fill-rule="evenodd"/><path d="M-0.15 0.34 C1.67 -10.37, 2.51 -48.39, 11.55 -65.23 C20.6 -82.07, 40.15 -99.38, 54.13 -100.69 C68.12 -101.99, 85.57 -88.84, 95.47 -73.05 C105.37 -57.26, 129.37 -17.95, 113.52 -5.96 C97.67 6.04, 19.45 -2.11, 0.37 -1.08 M-1.68 -0.53 C0.43 -11.47, 4.53 -50.25, 13.72 -66.77 C22.91 -83.3, 39.78 -98.25, 53.45 -99.67 C67.13 -101.1, 85.93 -91.1, 95.79 -75.33 C105.65 -59.56, 128.87 -17.8, 112.62 -5.08 C96.38 7.64, 17.22 0.29, -1.69 0.98" stroke="#000000" stroke-width="1" fill="none"/></g></g><g stroke-linecap="round"><g transform="translate(10 173.1313421316831) rotate(0 56.21012949632861 -50.05350605154317)" fill-rule="evenodd"><path d="M-0.2 0.7 L2.99 -32.21 L8.4 -58.91 L13.49 -66.65 L20.71 -77.22 L30.83 -88.14 L41.29 -95.92 L53.95 -100.27 L66.33 -98.22 L75.53 -94.48 L86.01 -85.63 L100.83 -66.6 L114.86 -39.88 L118.73 -20.3 L116.98 -11.29 L112.89 -8.35 L103.93 -4.89 L76.38 1.26 L-0.01 -0.75" stroke="none" stroke-width="0" fill="#868e96" fill-rule="evenodd"/><path d="M0.34 -1.04 C2.78 -12.04, 4.86 -49.68, 13.7 -66.17 C22.54 -82.65, 39.69 -98.92, 53.38 -99.97 C67.08 -101.02, 85.86 -88.05, 95.86 -72.47 C105.85 -56.9, 129.51 -18.44, 113.35 -6.52 C97.2 5.4, 17.77 -2.23, -1.08 -0.97 M-0.94 1.03 C1.52 -9.74, 4.46 -47.94, 13.33 -64.54 C22.21 -81.14, 38.47 -96.93, 52.31 -98.58 C66.15 -100.23, 86.37 -89.89, 96.38 -74.45 C106.39 -59.01, 128.47 -18.54, 112.37 -5.94 C96.27 6.66, 18.33 0.11, -0.23 1.15" stroke="#000000" stroke-width="1" fill="none"/></g></g><g stroke-linecap="round" transform="translate(168.510971882926 10) rotate(0 28.779586302120336 25.18213801435536)"><path d="M25.02 0.91 C30.77 -0.16, 37.99 1.41, 43.31 4.22 C48.64 7.03, 54.86 12.6, 56.96 17.76 C59.05 22.91, 58.38 30.28, 55.9 35.15 C53.42 40.02, 47.73 44.53, 42.08 46.95 C36.42 49.38, 27.9 50.86, 21.98 49.68 C16.05 48.5, 10.26 44.17, 6.54 39.85 C2.82 35.53, -0.47 28.95, -0.36 23.78 C-0.26 18.62, 1.91 12.65, 7.15 8.85 C12.39 5.04, 25.88 2.26, 31.06 0.97 C36.24 -0.31, 38.09 0.84, 38.22 1.13 M38.53 2.4 C44.28 3.93, 51.98 7.63, 54.92 12.52 C57.87 17.4, 57.54 26.22, 56.21 31.68 C54.88 37.14, 51.77 42.3, 46.91 45.27 C42.05 48.24, 33.24 49.74, 27.06 49.48 C20.88 49.21, 14.11 46.97, 9.81 43.68 C5.5 40.39, 2.16 35.06, 1.22 29.72 C0.28 24.38, 0.85 16.18, 4.15 11.64 C7.46 7.11, 15.29 4.32, 21.06 2.52 C26.82 0.72, 35.64 0.87, 38.76 0.85 C41.88 0.82, 40 1.99, 39.79 2.37" stroke="none" stroke-width="0" fill="#868e96"/><path d="M31.25 0.98 C37.33 1.05, 45.35 3.92, 49.56 7.39 C53.77 10.85, 55.96 16.3, 56.51 21.77 C57.06 27.23, 56.17 35.51, 52.85 40.17 C49.53 44.84, 42.61 48.51, 36.59 49.74 C30.56 50.98, 22.4 49.84, 16.69 47.6 C10.98 45.37, 4.89 41.11, 2.32 36.32 C-0.24 31.54, -0.27 24.06, 1.31 18.91 C2.88 13.76, 6.21 8.41, 11.78 5.43 C17.35 2.45, 30.34 1.53, 34.73 1.05 C39.12 0.57, 38.17 2.22, 38.12 2.54 M37.99 1.13 C43.39 2.89, 49.83 8.93, 53.02 13.89 C56.22 18.86, 58.28 25.69, 57.16 30.94 C56.04 36.19, 51.1 42.11, 46.3 45.39 C41.5 48.66, 34.25 50.74, 28.36 50.61 C22.48 50.48, 15.83 48.14, 10.98 44.59 C6.13 41.04, 0.64 34.49, -0.73 29.3 C-2.1 24.11, -0.72 18.11, 2.74 13.46 C6.19 8.81, 14.04 3.23, 19.99 1.39 C25.94 -0.45, 35.2 2.52, 38.45 2.43 C41.7 2.35, 39.72 0.75, 39.48 0.88" stroke="#000000" stroke-width="1" fill="none"/></g><g stroke-linecap="round" transform="translate(40.3274403052949 19.860271659816874) rotate(0 28.779586302120336 25.18213801435536)"><path d="M19.83 0.77 C25.21 -1.15, 33.54 0.34, 39.27 2.42 C45.01 4.49, 51.16 8.68, 54.23 13.2 C57.29 17.72, 58.92 24.42, 57.65 29.51 C56.39 34.6, 51.52 40.2, 46.65 43.74 C41.77 47.28, 34.62 50.73, 28.39 50.77 C22.15 50.8, 13.98 47.56, 9.22 43.95 C4.46 40.35, 0.62 34.45, -0.17 29.13 C-0.96 23.82, 0.51 16.76, 4.46 12.08 C8.41 7.4, 20.01 2.87, 23.55 1.07 C27.09 -0.72, 25.72 0.86, 25.7 1.32 M27.6 0.85 C33.35 0.23, 40.05 1.05, 45.14 4.17 C50.23 7.29, 56.52 14.34, 58.15 19.57 C59.77 24.8, 58 30.71, 54.88 35.53 C51.76 40.34, 45.17 45.98, 39.42 48.44 C33.66 50.89, 25.96 51.84, 20.34 50.26 C14.72 48.68, 9.12 43.4, 5.7 38.97 C2.29 34.53, -0.87 29.12, -0.12 23.68 C0.62 18.23, 5.82 10.12, 10.19 6.27 C14.55 2.43, 23.22 1.72, 26.04 0.63 C28.87 -0.46, 27.12 -0.53, 27.14 -0.28" stroke="none" stroke-width="0" fill="#868e96"/><path d="M22.81 1.51 C28.44 -0.25, 36.53 -0.6, 41.77 1.68 C47.02 3.97, 51.71 10.16, 54.3 15.23 C56.89 20.29, 58.84 27.01, 57.31 32.09 C55.79 37.18, 50.52 42.81, 45.15 45.74 C39.79 48.66, 31.28 50.09, 25.12 49.64 C18.95 49.2, 12.34 46.88, 8.14 43.07 C3.94 39.26, 0.23 32.28, -0.09 26.76 C-0.42 21.25, 1.44 14.6, 6.18 10 C10.91 5.4, 23.64 0.71, 28.3 -0.81 C32.96 -2.33, 34.21 0.21, 34.14 0.89 M31.41 -0.74 C37.52 -0.31, 46.05 3.96, 50.57 7.89 C55.09 11.83, 58.18 17.53, 58.53 22.89 C58.88 28.26, 56.44 35.46, 52.66 40.08 C48.88 44.71, 41.9 49.56, 35.85 50.66 C29.81 51.75, 21.94 49.44, 16.39 46.66 C10.84 43.89, 4.88 38.63, 2.53 33.98 C0.19 29.34, 0.63 23.84, 2.34 18.78 C4.05 13.73, 7.74 6.67, 12.8 3.68 C17.86 0.68, 29.74 1.49, 32.71 0.82 C35.68 0.15, 30.94 -0.81, 30.63 -0.35" stroke="#000000" stroke-width="1" fill="none"/></g><g stroke-linecap="round"><g transform="translate(70.84925695110914 185.5553110952542) rotate(0 60.91840570933847 -54.24609080507258)" fill-rule="evenodd"><path d="M-1.15 -1.16 L4.26 -32.76 L10.04 -64.31 L14.91 -72.54 L23.55 -86.71 L34.86 -96.49 L46.38 -103.31 L58.92 -109.12 L68.95 -107.61 L81.36 -99.6 L94.11 -90.15 L106.98 -71.43 L122.99 -41.94 L129.04 -21.52 L124.96 -13.56 L120.07 -5.89 L113.37 -3.39 L80.33 1.46 L0.89 -1.65" stroke="none" stroke-width="0" fill="#868e96" fill-rule="evenodd"/><path d="M0.17 -0.58 C2.64 -12.66, 3.88 -53.54, 13.78 -71.37 C23.68 -89.2, 44.6 -105.99, 59.58 -107.56 C74.56 -109.14, 93.47 -97.54, 103.68 -80.81 C113.9 -64.08, 137.97 -20.65, 120.87 -7.2 C103.77 6.25, 21.14 -1.25, 1.07 -0.12 M-1.2 1.73 C1.21 -10.2, 2.81 -54.69, 12.91 -73.22 C23.01 -91.74, 44.19 -108.24, 59.39 -109.42 C74.59 -110.59, 93.6 -97.4, 104.12 -80.27 C114.65 -63.15, 140.01 -19.84, 122.55 -6.67 C105.1 6.5, 19.59 -2.61, -0.62 -1.22" stroke="#000000" stroke-width="1" fill="none"/></g></g><g stroke-linecap="round" transform="translate(103.67939478426517 18.56696460857549) rotate(0 31.190223723181354 27.291445757783777)"><path d="M36.25 1.13 C42.55 1.79, 50.53 5.45, 54.98 9.65 C59.42 13.86, 62.92 20.72, 62.95 26.35 C62.97 31.98, 59.42 38.75, 55.13 43.44 C50.85 48.12, 43.85 53.21, 37.23 54.45 C30.6 55.69, 21.34 53.78, 15.4 50.88 C9.46 47.98, 3.81 42.49, 1.59 37.06 C-0.63 31.62, -0.26 23.7, 2.1 18.28 C4.47 12.85, 9.55 7.24, 15.79 4.51 C22.03 1.77, 34.81 2, 39.54 1.88 C44.27 1.76, 44.24 3.52, 44.18 3.8 M21.35 0.44 C27.43 -1.6, 38.45 0.2, 44.78 2.47 C51.1 4.74, 56.65 8.85, 59.31 14.05 C61.96 19.24, 62.32 27.62, 60.71 33.61 C59.1 39.61, 54.69 46.55, 49.65 50.01 C44.61 53.48, 37.13 54.64, 30.45 54.4 C23.78 54.16, 14.44 52.63, 9.61 48.56 C4.78 44.48, 2.39 35.87, 1.48 29.95 C0.56 24.02, 0.64 17.93, 4.1 13 C7.55 8.07, 19.34 2.31, 22.19 0.36 C25.05 -1.6, 21.12 0.62, 21.23 1.28" stroke="none" stroke-width="0" fill="#868e96"/><path d="M38.25 -0.25 C44.25 0.52, 50.97 6.13, 55.13 10.9 C59.3 15.67, 63.34 22.64, 63.24 28.38 C63.14 34.13, 59.29 41.14, 54.53 45.37 C49.77 49.6, 41.35 52.88, 34.68 53.77 C28.02 54.67, 20.12 53.82, 14.55 50.76 C8.98 47.69, 3.21 41.1, 1.28 35.39 C-0.64 29.69, 0.35 22.05, 3.01 16.52 C5.67 11, 10.73 4.75, 17.24 2.26 C23.74 -0.24, 37.42 1.26, 42.02 1.57 C46.61 1.88, 45.02 3.74, 44.82 4.11 M21.76 1.68 C27.87 -0.46, 36.92 -0.96, 43.13 1.07 C49.34 3.1, 55.85 8.48, 59.02 13.85 C62.18 19.21, 63.38 27.7, 62.11 33.27 C60.83 38.84, 56.57 43.92, 51.39 47.25 C46.21 50.58, 37.57 53.01, 31.03 53.25 C24.48 53.5, 17.22 52.38, 12.12 48.71 C7.02 45.04, 1.59 37.01, 0.42 31.24 C-0.75 25.48, 1.91 19.23, 5.1 14.12 C8.28 9, 17.02 2.42, 19.53 0.56 C22.05 -1.3, 19.71 2.45, 20.2 2.97" stroke="#000000" stroke-width="1" fill="none"/></g></svg>