<svg version="1.1" xmlns="http://www.w3.org/2000/svg" viewBox="0 0 207.92094322113198 155.91001771581762" width="415.84188644226396" height="311.82003543163523">
  <!-- svg-source:excalidraw -->
  
  <defs>
    <style>
      @font-face {
        font-family: "Virgil";
        src: url("https://excalidraw.com/Virgil.woff2");
      }
      @font-face {
        font-family: "Cascadia";
        src: url("https://excalidraw.com/Cascadia.woff2");
      }
    </style>
  </defs>
  <g stroke-linecap="round" transform="translate(9.048352743568813 12.814383857908808) rotate(14.142691776338504 95.2421875 63.0234375)"><path d="M131.48 4.76 C143.42 7.12, 155.76 14.53, 164.54 20.68 C173.32 26.83, 179.91 33.77, 184.18 41.66 C188.45 49.56, 190.93 59.62, 190.17 68.08 C189.41 76.53, 185.92 84.95, 179.63 92.39 C173.34 99.83, 162.69 107.4, 152.43 112.71 C142.16 118.03, 130.43 122.27, 118.05 124.28 C105.67 126.3, 91.04 126.27, 78.13 124.82 C65.22 123.37, 51.32 120.35, 40.58 115.58 C29.85 110.81, 20.42 103.61, 13.72 96.18 C7.01 88.75, 1.93 79.47, 0.36 71 C-1.22 62.53, 0.49 53.6, 4.28 45.36 C8.08 37.12, 14.89 27.98, 23.12 21.56 C31.34 15.14, 41.89 10.52, 53.64 6.83 C65.39 3.14, 79.49 -0.57, 93.62 -0.58 C107.75 -0.59, 129.97 4.89, 138.43 6.78 C146.9 8.67, 145.3 9.82, 144.43 10.76 M58.41 5.54 C69.17 1.21, 84.23 0.01, 96.8 -0.2 C109.36 -0.42, 122.23 0.79, 133.79 4.27 C145.35 7.75, 157.23 13.81, 166.15 20.68 C175.06 27.55, 183.42 37.39, 187.29 45.5 C191.15 53.6, 191.08 61.17, 189.35 69.31 C187.63 77.46, 183.45 87.05, 176.93 94.36 C170.41 101.68, 160.58 108.38, 150.26 113.21 C139.94 118.04, 127.79 121.61, 115.01 123.35 C102.22 125.09, 86.55 125.28, 73.57 123.65 C60.59 122.02, 47.12 118.35, 37.11 113.57 C27.11 108.8, 19.47 102.62, 13.54 94.99 C7.6 87.36, 2.79 76.43, 1.49 67.77 C0.19 59.12, 1.66 50.96, 5.73 43.06 C9.79 35.17, 17.22 26.94, 25.9 20.4 C34.57 13.85, 52.6 6.15, 57.78 3.8 C62.95 1.45, 56.48 5.27, 56.94 6.32" stroke="none" stroke-width="0" fill="#303846"></path><path d="M54.62 6.26 C65.06 1.85, 80.94 -0.16, 93.84 -0.23 C106.74 -0.3, 120.18 2.5, 132.01 5.83 C143.84 9.16, 155.87 13.75, 164.82 19.74 C173.77 25.73, 181.49 33.67, 185.71 41.79 C189.93 49.92, 191.19 59.8, 190.14 68.48 C189.08 77.17, 185.74 86.44, 179.37 93.92 C173 101.41, 162.42 108.24, 151.93 113.37 C141.45 118.5, 129.09 122.97, 116.47 124.72 C103.86 126.48, 88.78 125.7, 76.25 123.87 C63.72 122.05, 51.93 118.55, 41.31 113.77 C30.68 108.99, 19.44 102.29, 12.52 95.19 C5.6 88.09, 1.13 79.5, -0.22 71.17 C-1.56 62.84, 0.38 53.53, 4.44 45.21 C8.51 36.88, 14.43 28.21, 24.17 21.23 C33.91 14.24, 54.73 6.48, 62.86 3.3 C70.99 0.12, 72.24 1.05, 72.95 2.15 M71.34 3.07 C83.13 -0.16, 99.23 -1.02, 111.77 -0.03 C124.31 0.96, 135.91 4.04, 146.56 9.03 C157.22 14.02, 168.43 22.39, 175.71 29.91 C182.99 37.42, 188.5 45.85, 190.24 54.13 C191.97 62.41, 189.69 71.26, 186.15 79.59 C182.61 87.92, 177.21 97.52, 169.01 104.11 C160.81 110.69, 148.57 115.26, 136.94 119.11 C125.31 122.96, 111.8 126.96, 99.23 127.2 C86.67 127.43, 73.77 123.92, 61.54 120.52 C49.31 117.12, 35.2 112.86, 25.85 106.8 C16.5 100.74, 9.57 91.88, 5.43 84.15 C1.29 76.43, 0.2 68.88, 0.99 60.45 C1.78 52.02, 4.09 41.4, 10.17 33.58 C16.24 25.76, 27.21 18.71, 37.46 13.54 C47.71 8.37, 65.8 4.04, 71.68 2.56 C77.56 1.08, 72.31 3.89, 72.76 4.67" stroke="#303846" stroke-width="1" fill="none"></path></g><g stroke-linecap="round" transform="translate(6.546399618568813 14.931571357908808) rotate(339.1505350805056 95.2421875 63.0234375)"><path d="M75.71 1.3 C87.54 -1.37, 103.76 -1.34, 116.31 0.47 C128.86 2.29, 140.76 6.84, 151.01 12.2 C161.26 17.55, 171.46 25.27, 177.8 32.59 C184.15 39.92, 187.86 47.67, 189.1 56.18 C190.34 64.69, 189.15 75.36, 185.25 83.66 C181.35 91.96, 174.31 99.87, 165.68 105.97 C157.05 112.07, 145.16 116.95, 133.48 120.27 C121.8 123.6, 108.41 125.94, 95.59 125.91 C82.77 125.88, 68.47 123.52, 56.56 120.08 C44.66 116.63, 32.77 111.55, 24.17 105.26 C15.57 98.97, 8.98 90.65, 4.99 82.32 C0.99 73.99, -1.26 63.68, 0.2 55.26 C1.66 46.84, 7.29 39.04, 13.75 31.81 C20.22 24.58, 26.08 17.05, 38.99 11.9 C51.89 6.74, 79.84 2.72, 91.2 0.87 C102.56 -0.97, 107.08 0.04, 107.15 0.82 M96.14 0.46 C108.18 -0.81, 122.78 1.05, 134.24 4.39 C145.7 7.73, 156.38 13.73, 164.89 20.5 C173.39 27.27, 180.88 36.84, 185.26 45 C189.64 53.16, 192.63 61.2, 191.16 69.46 C189.69 77.73, 183.3 87.14, 176.44 94.59 C169.58 102.04, 160.53 108.94, 150.01 114.14 C139.48 119.34, 126.07 124.17, 113.32 125.78 C100.56 127.39, 86.02 126, 73.47 123.8 C60.91 121.59, 48.14 117.26, 37.98 112.55 C27.82 107.84, 18.57 102.59, 12.5 95.56 C6.43 88.53, 3.02 78.95, 1.56 70.35 C0.09 61.74, -0.2 52.12, 3.71 43.94 C7.62 35.77, 16.13 27.69, 25.02 21.29 C33.91 14.9, 45.49 9.34, 57.06 5.57 C68.62 1.81, 87.95 -0.48, 94.4 -1.32 C100.85 -2.16, 95.68 -0.51, 95.75 0.52" stroke="none" stroke-width="0" fill="#303846"></path><path d="M117.98 1.72 C130.11 2.68, 142.75 7.17, 153.04 12.34 C163.33 17.5, 173.6 25.03, 179.72 32.71 C185.84 40.4, 189.02 49.88, 189.75 58.45 C190.49 67.02, 188.39 75.98, 184.11 84.14 C179.83 92.3, 172.78 101.29, 164.06 107.41 C155.35 113.53, 143.72 117.75, 131.81 120.87 C119.9 123.99, 105.48 126.36, 92.58 126.11 C79.69 125.86, 66.23 122.9, 54.43 119.35 C42.63 115.81, 30.35 111.42, 21.8 104.85 C13.25 98.28, 6.65 88.44, 3.13 79.94 C-0.38 71.44, -1.24 62.14, 0.69 53.86 C2.63 45.58, 7.82 37.28, 14.73 30.25 C21.64 23.22, 31.66 16.7, 42.14 11.68 C52.63 6.65, 64.64 1.7, 77.65 0.1 C90.65 -1.5, 112.81 1.39, 120.18 2.08 C127.54 2.76, 122.15 3.23, 121.83 4.18 M66.82 3.79 C77.75 0.16, 91.79 -1.79, 104.2 -1.01 C116.62 -0.22, 129.86 3.87, 141.31 8.49 C152.76 13.11, 165.02 19.96, 172.92 26.71 C180.83 33.47, 186.21 40.74, 188.73 49.03 C191.26 57.31, 190.64 68.04, 188.07 76.42 C185.49 84.81, 180.86 92.48, 173.28 99.33 C165.7 106.18, 153.71 112.92, 142.58 117.53 C131.45 122.15, 119.46 126.34, 106.49 127.01 C93.52 127.69, 77.32 124.55, 64.78 121.6 C52.23 118.66, 40.8 114.68, 31.24 109.34 C21.68 103.99, 12.38 97.33, 7.4 89.51 C2.42 81.7, 1.27 70.87, 1.35 62.43 C1.44 53.98, 2.93 46.52, 7.93 38.85 C12.93 31.18, 21.61 22.22, 31.34 16.39 C41.07 10.56, 60.23 5.81, 66.3 3.87 C72.37 1.93, 67.53 4.1, 67.78 4.75" stroke="#303846" stroke-width="1" fill="none"></path></g><g stroke-linecap="round"><g transform="translate(106.84892533544837 105.858070180758) rotate(0 29.481714011016088 -24.609953744597703)" fill-rule="evenodd"><path d="M1.78 -0.2 L4.31 -26.31 L5.23 -34.78 L16.2 -44.23 L27.04 -50.95 L34.15 -50.65 L44.84 -44.46 L58.28 -19.78 L59.56 -8.83 L57.43 -4.12 L44.66 -1.09 L-1.18 1.32" stroke="none" stroke-width="0" fill="#868e96" fill-rule="evenodd"></path><path d="M-0.15 0.34 C0.63 -4.92, 0.73 -23.91, 5.34 -32.52 C9.96 -41.13, 20.34 -50.62, 27.52 -51.32 C34.71 -52.03, 43.37 -44.9, 48.46 -36.77 C53.56 -28.64, 66.1 -8.51, 58.09 -2.56 C50.07 3.39, 10.21 -1.55, 0.37 -1.08 M-1.68 -0.53 C-0.6 -6.01, 2.76 -25.76, 7.51 -34.06 C12.26 -42.36, 19.97 -49.48, 26.85 -50.31 C33.73 -51.14, 43.72 -47.16, 48.78 -39.05 C53.84 -30.95, 65.6 -8.35, 57.19 -1.68 C48.78 4.99, 7.98 0.86, -1.69 0.98" stroke="#000000" stroke-width="1" fill="none"></path></g></g><g stroke-linecap="round"><g transform="translate(42.13208446166453 110.69269404331433) rotate(0 29.796184869782042 -24.512169979624414)" fill-rule="evenodd"><path d="M-0.2 0.7 L2.89 -26.74 L5.23 -33.38 L16.85 -45.45 L27.15 -49.48 L32.24 -49.12 L42.3 -42.05 L57.52 -19.93 L61.18 -9.85 L56.35 -4.85 L45.33 -1.59 L1.32 0.15" stroke="none" stroke-width="0" fill="#868e96" fill-rule="evenodd"></path><path d="M0.34 -1.04 C1.75 -6.59, 3.08 -25.2, 7.49 -33.46 C11.89 -41.72, 19.88 -50.15, 26.77 -50.61 C33.67 -51.06, 43.66 -44.11, 48.85 -36.2 C54.04 -28.28, 66.24 -9, 57.92 -3.12 C49.6 2.75, 8.53 -1.67, -1.08 -0.97 M-0.94 1.03 C0.49 -4.29, 2.68 -23.46, 7.12 -31.83 C11.56 -40.2, 18.66 -48.16, 25.7 -49.22 C32.75 -50.28, 44.17 -45.96, 49.37 -38.18 C54.58 -30.4, 65.2 -9.1, 56.93 -2.54 C48.67 4.01, 9.09 0.68, -0.23 1.15" stroke="#000000" stroke-width="1" fill="none"></path></g></g><g stroke-linecap="round" transform="translate(121.95267315562748 28.599939436694513) rotate(0 14.588640006810849 12.765060005959526)"><path d="M12.83 0.79 C15.75 0.23, 18.88 0.94, 21.62 2.34 C24.37 3.74, 28.12 6.57, 29.28 9.2 C30.43 11.82, 29.89 15.7, 28.54 18.1 C27.2 20.5, 24.17 22.42, 21.2 23.58 C18.23 24.75, 13.66 25.75, 10.71 25.11 C7.76 24.48, 5.36 21.99, 3.52 19.77 C1.67 17.55, -0.37 14.29, -0.37 11.78 C-0.37 9.27, 0.86 6.53, 3.52 4.72 C6.18 2.91, 12.9 1.67, 15.59 0.92 C18.27 0.18, 19.47 0.17, 19.62 0.26 M19.09 1.52 C22.09 2.26, 26.73 3.45, 28.23 5.98 C29.74 8.52, 28.84 13.89, 28.12 16.75 C27.41 19.6, 26.4 21.79, 23.93 23.11 C21.46 24.43, 16.44 24.84, 13.29 24.65 C10.15 24.47, 7.09 23.52, 5.06 21.99 C3.02 20.47, 1.58 18.22, 1.07 15.51 C0.57 12.8, 0.33 8.02, 2.03 5.75 C3.74 3.48, 8.44 2.85, 11.32 1.89 C14.2 0.93, 17.8 0.07, 19.32 -0.04 C20.84 -0.14, 20.57 1.07, 20.46 1.26" stroke="none" stroke-width="0" fill="#868e96"></path><path d="M16.06 0.95 C19.24 1, 23.48 2.28, 25.51 3.9 C27.53 5.51, 27.97 7.82, 28.2 10.64 C28.43 13.45, 28.51 18.34, 26.9 20.8 C25.28 23.26, 21.6 24.88, 18.5 25.39 C15.4 25.9, 11.22 25, 8.28 23.85 C5.35 22.69, 2.13 20.86, 0.89 18.47 C-0.34 16.08, 0.05 12.08, 0.88 9.51 C1.72 6.94, 3.16 4.52, 5.92 3.06 C8.68 1.6, 15.28 1.02, 17.45 0.75 C19.61 0.49, 18.92 1.35, 18.92 1.47 M18.75 0.32 C21.39 1.33, 24.73 4.88, 26.44 7.53 C28.15 10.18, 29.58 13.55, 29.03 16.19 C28.48 18.83, 25.59 21.75, 23.15 23.34 C20.7 24.94, 17.23 25.87, 14.38 25.78 C11.53 25.68, 8.61 24.59, 6.06 22.78 C3.51 20.97, -0.02 17.47, -0.91 14.9 C-1.8 12.34, -1.16 9.77, 0.73 7.41 C2.63 5.04, 7.38 1.67, 10.46 0.7 C13.54 -0.26, 17.57 1.76, 19.21 1.62 C20.86 1.47, 20.5 -0.1, 20.34 -0.17" stroke="#000000" stroke-width="1" fill="none"></path></g><g stroke-linecap="round" transform="translate(56.97524862433907 33.598202862177715) rotate(0 14.588640006810849 12.765060005959526)"><path d="M10.38 0.06 C13.09 -0.87, 17.23 0.49, 20.11 1.63 C23 2.77, 26.12 4.7, 27.69 6.9 C29.25 9.1, 30.22 12.36, 29.51 14.83 C28.8 17.31, 25.96 19.89, 23.43 21.74 C20.9 23.59, 17.52 25.88, 14.32 25.94 C11.12 25.99, 6.69 23.97, 4.24 22.09 C1.8 20.21, -0.07 17.35, -0.37 14.67 C-0.66 11.98, 0.38 8.28, 2.5 5.97 C4.62 3.65, 10.66 1.62, 12.37 0.79 C14.07 -0.03, 12.79 0.77, 12.71 1.02 M14.29 0.83 C17.18 0.52, 19.88 0.2, 22.52 1.74 C25.17 3.28, 29.25 7.43, 30.16 10.07 C31.07 12.71, 29.75 15.15, 27.98 17.58 C26.21 20.01, 22.52 23.25, 19.55 24.64 C16.58 26.03, 12.86 26.76, 10.16 25.93 C7.46 25.1, 5.07 21.89, 3.34 19.68 C1.61 17.47, -0.62 15.45, -0.21 12.65 C0.19 9.84, 3.62 4.86, 5.78 2.85 C7.94 0.85, 11.4 1.17, 12.74 0.6 C14.08 0.04, 13.81 -0.6, 13.81 -0.55" stroke="none" stroke-width="0" fill="#868e96"></path><path d="M12.01 1.15 C14.89 0.14, 18.81 -0.7, 21.33 0.41 C23.85 1.53, 25.77 5.19, 27.13 7.83 C28.49 10.46, 30.17 13.69, 29.49 16.22 C28.81 18.75, 25.9 21.57, 23.06 23.01 C20.22 24.45, 15.59 25.04, 12.45 24.88 C9.3 24.72, 6.28 23.95, 4.19 22.05 C2.09 20.16, 0 16.37, -0.13 13.52 C-0.25 10.66, 0.99 7.3, 3.44 4.91 C5.89 2.52, 12.23 -0.08, 14.57 -0.82 C16.91 -1.56, 17.57 -0.02, 17.49 0.45 M15.67 -0.81 C18.88 -0.5, 23.7 2.04, 26.12 4.06 C28.54 6.07, 30.02 8.57, 30.17 11.28 C30.33 13.99, 29.01 17.84, 27.03 20.32 C25.05 22.8, 21.39 25.71, 18.3 26.18 C15.2 26.64, 11.31 24.71, 8.48 23.11 C5.66 21.51, 2.45 18.78, 1.34 16.57 C0.22 14.36, 0.91 12.35, 1.77 9.85 C2.63 7.35, 3.95 3.1, 6.49 1.59 C9.02 0.07, 15.57 1.12, 16.97 0.75 C18.37 0.37, 15.2 -0.92, 14.91 -0.68" stroke="#000000" stroke-width="1" fill="none"></path></g><g stroke-linecap="round"><g transform="translate(73.03897343030947 116.7372817819485) rotate(0 32.1311504072282 -27.09455052820623)" fill-rule="evenodd"><path d="M-1.15 -1.16 L4.16 -26.84 L6.6 -36.65 L18.56 -49.55 L30.53 -56.65 L36.39 -54.21 L47.47 -44.94 L57.76 -32.67 L60.98 -22.12 L63.55 -9.83 L61.91 -2.41 L49 0.47 L0 0.33" stroke="none" stroke-width="0" fill="#868e96" fill-rule="evenodd"></path><path d="M0.17 -0.58 C1.52 -6.75, 1.96 -27, 7.05 -35.92 C12.15 -44.83, 23.13 -53.14, 30.74 -54.07 C38.36 -54.99, 47.73 -49.92, 52.74 -41.49 C57.75 -33.07, 69.41 -10.41, 60.79 -3.52 C52.18 3.38, 11.13 -0.64, 1.07 -0.12 M-1.2 1.73 C0.09 -4.29, 0.89 -28.16, 6.18 -37.77 C11.47 -47.38, 22.72 -55.39, 30.55 -55.92 C38.39 -56.45, 47.86 -49.78, 53.18 -40.95 C58.5 -32.13, 71.44 -9.61, 62.48 -2.99 C53.51 3.63, 9.58 -2, -0.62 -1.22" stroke="#000000" stroke-width="1" fill="none"></path></g></g><g stroke-linecap="round" transform="translate(89.08894365523227 32.94261348744671) rotate(0 15.81061453950992 13.834287722071224)"><path d="M18.58 0.98 C21.75 1.4, 25.8 3.06, 28.07 5.1 C30.33 7.14, 32.25 10.48, 32.19 13.23 C32.14 15.98, 29.96 19.16, 27.73 21.59 C25.5 24.02, 22.19 27.13, 18.8 27.8 C15.41 28.47, 10.42 27.12, 7.38 25.6 C4.33 24.08, 1.54 21.43, 0.53 18.68 C-0.49 15.93, -0.02 11.8, 1.3 9.11 C2.62 6.42, 5.36 3.83, 8.43 2.53 C11.51 1.23, 17.39 1.35, 19.73 1.31 C22.06 1.27, 22.43 2.24, 22.44 2.3 M10.46 -0.15 C13.61 -1.22, 20.09 0.26, 23.38 1.4 C26.68 2.54, 29.07 4.07, 30.22 6.69 C31.38 9.31, 31.21 13.94, 30.34 17.12 C29.47 20.31, 27.43 24.08, 25.02 25.81 C22.61 27.54, 19.26 27.6, 15.88 27.51 C12.5 27.42, 7.14 27.37, 4.72 25.26 C2.3 23.15, 1.88 17.92, 1.36 14.85 C0.84 11.79, -0.04 9.39, 1.61 6.88 C3.27 4.36, 9.87 0.84, 11.31 -0.23 C12.75 -1.31, 10.21 -0.01, 10.26 0.43" stroke="none" stroke-width="0" fill="#868e96"></path><path d="M19.54 -0.57 C22.44 -0.22, 25.39 3.15, 27.55 5.63 C29.71 8.12, 32.45 11.47, 32.5 14.34 C32.54 17.2, 30.35 20.72, 27.82 22.82 C25.28 24.93, 20.69 26.45, 17.3 26.97 C13.9 27.49, 10.22 27.46, 7.44 25.95 C4.65 24.44, 1.51 20.85, 0.57 17.89 C-0.36 14.94, 0.44 11.08, 1.84 8.22 C3.23 5.36, 5.68 1.97, 8.96 0.74 C12.23 -0.5, 19.2 0.51, 21.48 0.79 C23.77 1.08, 22.79 2.28, 22.68 2.44 M11.52 0.91 C14.74 -0.16, 19.25 -0.8, 22.37 0.22 C25.49 1.24, 28.71 4.16, 30.25 7.02 C31.79 9.88, 32.28 14.63, 31.6 17.36 C30.93 20.1, 28.86 21.91, 26.22 23.41 C23.59 24.91, 19.03 26.07, 15.78 26.34 C12.53 26.61, 9.32 26.81, 6.73 25.02 C4.13 23.22, 0.84 18.48, 0.21 15.56 C-0.41 12.64, 1.46 10.12, 2.97 7.49 C4.48 4.86, 8.14 0.71, 9.29 -0.21 C10.44 -1.13, 9.45 1.63, 9.86 1.95" stroke="#000000" stroke-width="1" fill="none"></path></g></svg>