<svg version="1.1" xmlns="http://www.w3.org/2000/svg" viewBox="0 0 207.92094322113195 155.91001771581765" width="415.8418864422639" height="311.8200354316353">
  <!-- svg-source:excalidraw -->
  
  <defs>
    <style>
      @font-face {
        font-family: "Virgil";
        src: url("https://excalidraw.com/Virgil.woff2");
      }
      @font-face {
        font-family: "Cascadia";
        src: url("https://excalidraw.com/Cascadia.woff2");
      }
    </style>
  </defs>
  <g stroke-linecap="round" transform="translate(9.048352743568813 12.814383857908808) rotate(14.142691776338504 95.2421875 63.0234375)"><path d="M115.38 0.68 C127.65 1.36, 141.8 7.08, 152.18 12.37 C162.55 17.66, 171.33 25.14, 177.61 32.43 C183.88 39.71, 188.66 47.51, 189.83 56.09 C191 64.67, 188.76 75.72, 184.63 83.9 C180.49 92.09, 173.73 98.91, 165.02 105.2 C156.32 111.48, 144.04 118.06, 132.38 121.63 C120.72 125.2, 107.68 126.8, 95.07 126.61 C82.46 126.42, 68.52 124.01, 56.74 120.49 C44.96 116.97, 33.11 111.87, 24.41 105.5 C15.72 99.14, 8.4 90.51, 4.59 82.31 C0.77 74.11, -0.03 64.75, 1.52 56.3 C3.07 47.86, 7.49 39.16, 13.9 31.66 C20.31 24.16, 29.77 16.43, 40 11.33 C50.22 6.22, 60.83 2.36, 75.26 1.03 C89.69 -0.31, 116.66 2.26, 126.59 3.31 C136.52 4.36, 135.56 6.23, 134.84 7.34 M105.07 -0.22 C117.59 -0.52, 132.01 2.47, 143.13 6.79 C154.25 11.1, 164.36 18.61, 171.78 25.67 C179.21 32.74, 185.07 40.94, 187.68 49.19 C190.3 57.44, 190.02 66.68, 187.49 75.18 C184.95 83.68, 179.77 93.36, 172.47 100.18 C165.17 107, 154.82 112, 143.67 116.1 C132.51 120.19, 118.44 123.71, 105.52 124.74 C92.59 125.78, 78.5 124.69, 66.12 122.31 C53.75 119.92, 41.06 115.97, 31.25 110.43 C21.44 104.88, 12.27 96.8, 7.26 89.02 C2.26 81.25, 0.89 72.22, 1.24 63.77 C1.59 55.32, 4.61 46.38, 9.38 38.35 C14.15 30.31, 20.72 21.21, 29.87 15.55 C39.01 9.88, 51.86 6.92, 64.25 4.38 C76.65 1.84, 97.46 0.86, 104.24 0.32 C111.01 -0.22, 105.21 -0.11, 104.9 1.15" stroke="none" stroke-width="0" fill="#303846"></path><path d="M85.82 1.02 C97.85 -0.58, 113.88 0.2, 126.13 2.87 C138.38 5.55, 149.79 11.25, 159.31 17.09 C168.83 22.92, 177.98 30.01, 183.25 37.9 C188.51 45.78, 191.07 55.73, 190.91 64.4 C190.75 73.07, 187.79 82.39, 182.29 89.92 C176.78 97.44, 167.64 103.92, 157.86 109.53 C148.08 115.15, 136 121.01, 123.61 123.61 C111.21 126.21, 96.47 126.25, 83.5 125.13 C70.53 124.01, 56.86 121.03, 45.77 116.89 C34.68 112.74, 24.24 107.12, 16.94 100.25 C9.64 93.38, 4.36 84.23, 1.98 75.68 C-0.4 67.14, -0.06 57.38, 2.67 48.97 C5.41 40.56, 10.61 31.91, 18.41 25.22 C26.2 18.54, 35.09 13.12, 49.44 8.87 C63.8 4.62, 92.57 0.65, 104.54 -0.27 C116.52 -1.18, 121.54 2.33, 121.28 3.38 M58.78 3.79 C69.64 -0.01, 84.41 0.14, 97.28 0.53 C110.16 0.91, 124.41 2.38, 136.04 6.09 C147.67 9.81, 158.52 16.24, 167.06 22.81 C175.61 29.38, 183.7 37.66, 187.3 45.51 C190.91 53.35, 190.27 61.63, 188.7 69.88 C187.13 78.14, 184.27 87.66, 177.88 95.06 C171.49 102.45, 161.29 109.02, 150.38 114.23 C139.47 119.44, 125.45 124.79, 112.41 126.31 C99.36 127.83, 84.74 125.44, 72.12 123.34 C59.5 121.24, 46.66 118.59, 36.68 113.69 C26.69 108.78, 18.17 101.47, 12.19 93.91 C6.2 86.34, 2.15 77.08, 0.76 68.27 C-0.64 59.46, -0.37 48.99, 3.83 41.06 C8.03 33.13, 16.92 26.57, 25.98 20.69 C35.04 14.82, 52.62 8, 58.19 5.82 C63.76 3.63, 58.99 6.82, 59.41 7.6" stroke="#303846" stroke-width="1" fill="none"></path></g><g stroke-linecap="round" transform="translate(6.546399618568813 14.931571357908823) rotate(339.1505350805056 95.2421875 63.0234375)"><path d="M137.03 7.52 C148.61 10.2, 160.11 15.69, 168.57 22.08 C177.03 28.46, 184.38 37.48, 187.79 45.83 C191.21 54.18, 191.25 63.58, 189.08 72.18 C186.91 80.79, 181.61 90.35, 174.77 97.47 C167.92 104.59, 158.62 110.39, 148.01 114.93 C137.39 119.46, 123.86 123.25, 111.07 124.71 C98.28 126.17, 83.68 125.64, 71.27 123.69 C58.86 121.73, 46.6 118.4, 36.63 113 C26.65 107.59, 17.54 98.84, 11.41 91.24 C5.28 83.65, 0.73 75.7, -0.15 67.4 C-1.03 59.11, 1.64 49.54, 6.14 41.47 C10.63 33.39, 17.88 24.97, 26.83 18.95 C35.77 12.93, 47.67 8.38, 59.8 5.34 C71.93 2.3, 84.83 -0.21, 99.62 0.72 C114.42 1.65, 138.93 8.19, 148.56 10.93 C158.2 13.67, 158.1 16.41, 157.43 17.17 M118.57 2.59 C131.07 3.67, 145.97 7.68, 156.34 12.82 C166.71 17.95, 175.15 25.74, 180.8 33.37 C186.46 41, 189.69 49.95, 190.28 58.61 C190.87 67.27, 188.89 76.98, 184.34 85.34 C179.8 93.7, 172.33 102.77, 163 108.76 C153.68 114.76, 140.74 118.36, 128.42 121.31 C116.1 124.26, 101.86 126.8, 89.1 126.47 C76.33 126.14, 62.94 123.27, 51.8 119.33 C40.66 115.39, 30.42 109.44, 22.26 102.83 C14.11 96.22, 6.64 87.98, 2.88 79.66 C-0.88 71.34, -2.27 61.28, -0.29 52.93 C1.69 44.59, 7.74 36.45, 14.77 29.59 C21.79 22.72, 30.84 16.66, 41.86 11.74 C52.88 6.82, 67.94 1.46, 80.88 0.07 C93.82 -1.32, 113.26 3.09, 119.5 3.4 C125.74 3.71, 118.53 1.09, 118.34 1.91" stroke="none" stroke-width="0" fill="#303846"></path><path d="M56.44 6.12 C66.92 2.04, 82.37 0.68, 95.45 0.52 C108.52 0.36, 122.87 1.65, 134.88 5.16 C146.9 8.67, 158.92 14.94, 167.55 21.58 C176.17 28.21, 182.99 36.91, 186.64 44.97 C190.29 53.04, 191.11 61.71, 189.47 69.95 C187.82 78.2, 183.42 87.15, 176.78 94.45 C170.14 101.76, 160.13 108.76, 149.63 113.78 C139.12 118.8, 126.1 122.76, 113.75 124.58 C101.4 126.4, 88.22 126.67, 75.52 124.69 C62.83 122.71, 48.1 117.95, 37.6 112.7 C27.09 107.45, 18.72 100.36, 12.5 93.17 C6.28 85.99, 1.61 77.95, 0.27 69.59 C-1.06 61.23, 0.43 51.18, 4.48 43.01 C8.53 34.84, 14.48 27.1, 24.57 20.58 C34.66 14.06, 56.82 6.85, 65.03 3.9 C73.24 0.94, 73.24 2, 73.81 2.83 M90.92 -0.3 C102.74 -1.66, 117.08 1.34, 129.13 4.76 C141.19 8.18, 153.8 14.12, 163.24 20.22 C172.68 26.31, 181.31 33.3, 185.77 41.33 C190.23 49.35, 191.21 59.68, 190 68.37 C188.79 77.05, 184.64 86.27, 178.49 93.42 C172.34 100.57, 162.91 106.13, 153.09 111.28 C143.27 116.43, 131.8 121.83, 119.55 124.32 C107.31 126.81, 92.23 127.71, 79.6 126.24 C66.97 124.78, 54.69 120.47, 43.77 115.53 C32.85 110.59, 21.41 103.91, 14.1 96.6 C6.79 89.3, 1.62 79.9, -0.1 71.69 C-1.81 63.48, -0.08 55.48, 3.81 47.35 C7.7 39.22, 15.15 29.84, 23.23 22.9 C31.31 15.97, 41.13 9.59, 52.31 5.73 C63.5 1.87, 83.96 0.71, 90.34 -0.25 C96.73 -1.22, 90.23 -0.97, 90.61 -0.08" stroke="#303846" stroke-width="1" fill="none"></path></g><g stroke-linecap="round"><g transform="translate(103.90543377671759 64.9193973682227) rotate(0 18.3893823493109 -16.95259327267027)" fill-rule="evenodd"><path d="M-1.11 1.55 L-1.04 -15.42 L-2.18 -22.05 L8.28 -32.19 L13.07 -35.74 L17.92 -35.58 L19.96 -34.36 L27.38 -33.69 L35.15 -21.85 L37.86 -9.42 L35.22 -1.19 L34.35 0.94 L29.99 0.39 L27.35 -20.4 L22.22 -26.93 L18.73 -29.03 L10.09 -24.12 L6.98 -19.19 L5.06 -0.05" stroke="none" stroke-width="0" fill="#868e96" fill-rule="evenodd"></path><path d="M-0.67 -1 C-0.72 -4.56, -2.57 -14.47, 0.41 -20.43 C3.4 -26.4, 11.76 -36.31, 17.23 -36.79 C22.69 -37.26, 29.73 -29.47, 33.19 -23.31 C36.66 -17.15, 38.28 -3.71, 38.03 0.17 C37.77 4.06, 33.57 3.37, 31.66 0.01 C29.76 -3.35, 28.87 -15.19, 26.6 -19.98 C24.33 -24.76, 21.54 -28.82, 18.04 -28.67 C14.54 -28.52, 7.55 -24.02, 5.61 -19.07 C3.66 -14.12, 6.03 -2.16, 6.35 1.03 M1.18 1.09 C0.97 -2.92, -2.75 -16.17, -0.16 -22.3 C2.42 -28.43, 11.16 -35.15, 16.69 -35.7 C22.21 -36.26, 29.59 -31.65, 33 -25.61 C36.41 -19.57, 37.69 -3.61, 37.15 0.52 C36.6 4.65, 31.42 2.83, 29.74 -0.83 C28.06 -4.49, 29.25 -16.75, 27.1 -21.44 C24.94 -26.12, 20.14 -29.67, 16.79 -28.96 C13.45 -28.25, 8.66 -22.09, 7.02 -17.16 C5.38 -12.24, 6.74 -2.37, 6.95 0.58" stroke="#000000" stroke-width="1" fill="none"></path></g></g><g stroke-linecap="round" transform="translate(69.33259737534453 64.62475316371469) rotate(0 24.29824561403507 19.495104039167657)"><path d="M1.47 -1.72 L48.98 1.16 L47.44 38.12 L-0.79 37.22" stroke="none" stroke-width="0" fill="#868e96"></path><path d="M1.17 0.8 C19 -0.35, 35.16 1.2, 50.46 -0.14 M-0.18 -0.35 C17.16 -0.8, 33.57 -0.15, 48.61 0.74 M48.99 0.16 C46.49 7.49, 49.5 15.78, 49.56 37.82 M49.13 0.54 C48.16 14.44, 49.71 28.23, 49.36 38.15 M47.54 39.75 C38.02 37.93, 25.57 37.77, 0.27 38.73 M48.18 38.19 C38.27 39.41, 28.08 40.05, 0.61 39.48 M-0.2 39.37 C-1.99 22.28, -1.22 8.64, -0.91 -0.71 M-0.28 38.68 C-0.48 26.77, -0.41 15.1, 0 -0.54" stroke="#000000" stroke-width="1" fill="none"></path></g><g stroke-linecap="round" transform="translate(89.67531463360737 79.31671562801486) rotate(0 5.085679314565439 5.650754793961617)"><path d="M6.57 0.57 C7.92 0.69, 9.18 2.12, 9.92 2.95 C10.66 3.78, 11.13 4.63, 11 5.55 C10.88 6.47, 10.12 7.6, 9.17 8.47 C8.22 9.34, 6.37 10.52, 5.3 10.79 C4.22 11.06, 3.63 10.61, 2.73 10.09 C1.84 9.57, 0.24 8.84, -0.05 7.68 C-0.34 6.52, 0.61 4.34, 0.99 3.13 C1.38 1.93, 1.41 0.97, 2.26 0.45 C3.11 -0.08, 5.38 -0.03, 6.08 -0.01 C6.77 0.01, 6.41 0.55, 6.43 0.58 M7.79 -0.49 C8.88 -0.29, 8.73 1.29, 8.89 2.32 C9.05 3.36, 8.8 4.49, 8.75 5.74 C8.7 6.99, 9.09 8.83, 8.61 9.83 C8.13 10.83, 7.17 11.49, 5.88 11.74 C4.6 11.99, 1.84 12.07, 0.91 11.31 C-0.01 10.56, 0.57 8.85, 0.34 7.23 C0.12 5.6, -1.12 2.61, -0.43 1.57 C0.25 0.52, 3.44 1.28, 4.45 0.94 C5.46 0.61, 5.12 -0.14, 5.64 -0.44 C6.16 -0.74, 7.29 -1.3, 7.59 -0.88" stroke="none" stroke-width="0" fill="#303846"></path><path d="M6.39 1.02 C7.47 1.36, 8.24 1.81, 8.92 2.55 C9.61 3.29, 10.51 4.38, 10.49 5.44 C10.47 6.51, 9.53 8.14, 8.79 8.95 C8.04 9.76, 7.17 10.09, 6.03 10.31 C4.89 10.53, 2.89 10.61, 1.94 10.27 C0.99 9.94, 0.71 9.49, 0.31 8.3 C-0.09 7.11, -0.98 4.37, -0.47 3.14 C0.03 1.92, 2.06 1.55, 3.33 0.94 C4.61 0.34, 6.48 -0.62, 7.16 -0.49 C7.85 -0.36, 7.61 1.41, 7.44 1.73 M2.52 1.04 C3.48 0.4, 6.58 -1, 7.9 -0.41 C9.23 0.18, 9.99 3.15, 10.47 4.56 C10.94 5.98, 11.35 7.33, 10.75 8.09 C10.15 8.84, 7.86 8.77, 6.86 9.09 C5.86 9.41, 5.75 9.79, 4.74 10 C3.73 10.21, 1.53 11.03, 0.81 10.34 C0.08 9.64, 0.5 7.23, 0.39 5.83 C0.28 4.43, -0.43 2.92, 0.14 1.95 C0.71 0.99, 3.48 0.16, 3.82 0.05 C4.16 -0.07, 2.15 1.24, 2.17 1.26" stroke="#000000" stroke-width="1" fill="none"></path></g></svg>