<svg version="1.1" xmlns="http://www.w3.org/2000/svg" viewBox="0 0 91.4822919864485 95.03084226828241" width="182.964583972897" height="190.06168453656483">
  <!-- svg-source:excalidraw -->
  
  <defs>
    <style>
      @font-face {
        font-family: "Virgil";
        src: url("https://unpkg.com/@zsviczian/excalidraw@0.11.0-obsidian-21-namedexport/dist/excalidraw-assets/Virgil.woff2");
      }
      @font-face {
        font-family: "Cascadia";
        src: url("https://unpkg.com/@zsviczian/excalidraw@0.11.0-obsidian-21-namedexport/dist/excalidraw-assets/Cascadia.woff2");
      }
    </style>
  </defs>
  <rect x="0" y="0" width="91.4822919864485" height="95.03084226828241" fill="#ffffff"/><g stroke-linecap="round"><g transform="translate(44.57283640137305 46.335278394455116) rotate(0 18.3097176224158 -17.65993174089034)" fill-rule="evenodd"><path d="M-1.11 1.55 L-1.04 -15.42 L-2.18 -22.05 L8.28 -32.19 L13.07 -35.74 L17.92 -35.58 L19.96 -34.36 L27.38 -33.69 L35.15 -21.85 L37.86 -9.42 L35.22 -1.19 L34.35 0.94 L29.99 0.39 L27.35 -20.4 L22.22 -26.93 L18.73 -29.03 L10.09 -24.12 L6.98 -19.19 L5.06 -0.05" stroke="none" stroke-width="0" fill="#868e96" fill-rule="evenodd"/><path d="M-0.67 -1 C-0.72 -4.56, -2.57 -14.47, 0.41 -20.43 C3.4 -26.4, 11.76 -36.31, 17.23 -36.79 C22.69 -37.26, 29.73 -29.47, 33.19 -23.31 C36.66 -17.15, 38.28 -3.71, 38.03 0.17 C37.77 4.06, 33.57 3.37, 31.66 0.01 C29.76 -3.35, 28.87 -15.19, 26.6 -19.98 C24.33 -24.76, 21.54 -28.82, 18.04 -28.67 C14.54 -28.52, 7.55 -24.02, 5.61 -19.07 C3.66 -14.12, 6.03 -2.16, 6.35 1.03 M1.18 1.09 C0.97 -2.92, -2.75 -16.17, -0.16 -22.3 C2.42 -28.43, 11.16 -35.15, 16.69 -35.7 C22.21 -36.26, 29.59 -31.65, 33 -25.61 C36.41 -19.57, 37.69 -3.61, 37.15 0.52 C36.6 4.65, 31.42 2.83, 29.74 -0.83 C28.06 -4.49, 29.25 -16.75, 27.1 -21.44 C24.94 -26.12, 20.14 -29.67, 16.79 -28.96 C13.45 -28.25, 8.66 -22.09, 7.02 -17.16 C5.38 -12.24, 6.74 -2.37, 6.95 0.58" stroke="#000000" stroke-width="1" fill="none"/></g></g><g stroke-linecap="round" transform="translate(10 46.0406341899471) rotate(0 24.29824561403507 19.495104039167657)"><path d="M1.47 -1.72 L48.98 1.16 L47.44 38.12 L-0.79 37.22" stroke="none" stroke-width="0" fill="#868e96"/><path d="M1.17 0.8 C19 -0.35, 35.16 1.2, 50.46 -0.14 M-0.18 -0.35 C17.16 -0.8, 33.57 -0.15, 48.61 0.74 M48.99 0.16 C46.49 7.49, 49.5 15.78, 49.56 37.82 M49.13 0.54 C48.16 14.44, 49.71 28.23, 49.36 38.15 M47.54 39.75 C38.02 37.93, 25.57 37.77, 0.27 38.73 M48.18 38.19 C38.27 39.41, 28.08 40.05, 0.61 39.48 M-0.2 39.37 C-1.99 22.28, -1.22 8.64, -0.91 -0.71 M-0.28 38.68 C-0.48 26.77, -0.41 15.1, 0 -0.54" stroke="#000000" stroke-width="1" fill="none"/></g><g stroke-linecap="round" transform="translate(30.342717258262837 60.732596654247274) rotate(0 5.085679314565439 5.650754793961617)"><path d="M6.57 0.57 C7.92 0.69, 9.18 2.12, 9.92 2.95 C10.66 3.78, 11.13 4.63, 11 5.55 C10.88 6.47, 10.12 7.6, 9.17 8.47 C8.22 9.34, 6.37 10.52, 5.3 10.79 C4.22 11.06, 3.63 10.61, 2.73 10.09 C1.84 9.57, 0.24 8.84, -0.05 7.68 C-0.34 6.52, 0.61 4.34, 0.99 3.13 C1.38 1.93, 1.41 0.97, 2.26 0.45 C3.11 -0.08, 5.38 -0.03, 6.08 -0.01 C6.77 0.01, 6.41 0.55, 6.43 0.58 M7.79 -0.49 C8.88 -0.29, 8.73 1.29, 8.89 2.32 C9.05 3.36, 8.8 4.49, 8.75 5.74 C8.7 6.99, 9.09 8.83, 8.61 9.83 C8.13 10.83, 7.17 11.49, 5.88 11.74 C4.6 11.99, 1.84 12.07, 0.91 11.31 C-0.01 10.56, 0.57 8.85, 0.34 7.23 C0.12 5.6, -1.12 2.61, -0.43 1.57 C0.25 0.52, 3.44 1.28, 4.45 0.94 C5.46 0.61, 5.12 -0.14, 5.64 -0.44 C6.16 -0.74, 7.29 -1.3, 7.59 -0.88" stroke="none" stroke-width="0" fill="white"/><path d="M6.39 1.02 C7.47 1.36, 8.24 1.81, 8.92 2.55 C9.61 3.29, 10.51 4.38, 10.49 5.44 C10.47 6.51, 9.53 8.14, 8.79 8.95 C8.04 9.76, 7.17 10.09, 6.03 10.31 C4.89 10.53, 2.89 10.61, 1.94 10.27 C0.99 9.94, 0.71 9.49, 0.31 8.3 C-0.09 7.11, -0.98 4.37, -0.47 3.14 C0.03 1.92, 2.06 1.55, 3.33 0.94 C4.61 0.34, 6.48 -0.62, 7.16 -0.49 C7.85 -0.36, 7.61 1.41, 7.44 1.73 M2.52 1.04 C3.48 0.4, 6.58 -1, 7.9 -0.41 C9.23 0.18, 9.99 3.15, 10.47 4.56 C10.94 5.98, 11.35 7.33, 10.75 8.09 C10.15 8.84, 7.86 8.77, 6.86 9.09 C5.86 9.41, 5.75 9.79, 4.74 10 C3.73 10.21, 1.53 11.03, 0.81 10.34 C0.08 9.64, 0.5 7.23, 0.39 5.83 C0.28 4.43, -0.43 2.92, 0.14 1.95 C0.71 0.99, 3.48 0.16, 3.82 0.05 C4.16 -0.07, 2.15 1.24, 2.17 1.26" stroke="#000000" stroke-width="1" fill="none"/></g></svg>